# xmcd
# 
# Track frame offsets:
#     150
#     20451
#     49257
#     66878
#     92327
#     123811
#     152590
# 
# Disc length: 2558
# 
# Revision: 0
# Processed by: cddbd v1.5.2PL0 Copyright (c) Steve Scherf et al.
# Submitted via: fre:ac v1.0.17
# 
DISCID=4c09fc07
DTITLE=Wojciech Łukaszewski - Symphonic Works
DYEAR=1999
DGENRE=
TTITLE0=Concertino for piano and orchestra, 1. Allegro Giocoso
TTITLE1=Concertino for piano and orchestra, 2. Andante Cantabile
TTITLE2=Concertino for piano and orchestra, 3. Allegro Scherzando
TTITLE3=Musica Per Archi
TTITLE4=Confessioni
TTITLE5=Musica Da Camera
TTITLE6=Epizody
EXTD=Acte Prealable AP00035, Łukaszewski Marcin, piano\nPolish Orchestra Jeunesses Musicales, \nJean-Jacques Degremont - conductor
EXTT0=
EXTT1=
EXTT2=
EXTT3=
EXTT4=
EXTT5=
EXTT6=
PLAYORDER=
